<mxfile host="app.diagrams.net" modified="2024-11-13T16:16:49.944Z" agent="Mozilla/5.0 (Windows NT 10.0; Win64; x64) AppleWebKit/537.36 (KHTML, like Gecko) Chrome/130.0.0.0 Safari/537.36 Edg/130.0.0.0" etag="8ERi5FbftUNb9SD5GTIe" version="24.6.4" type="github">
  <diagram name="Page-1" id="QK5GMoUIisyWuspVT4T_">
    <mxGraphModel dx="1489" dy="807" grid="1" gridSize="10" guides="1" tooltips="1" connect="1" arrows="1" fold="1" page="1" pageScale="1" pageWidth="827" pageHeight="1169" math="0" shadow="0">
      <root>
        <mxCell id="0" />
        <mxCell id="1" parent="0" />
        <mxCell id="kaOW9bH6SVgOuemZYMXy-1" value="&lt;font style=&quot;font-size: 14px;&quot;&gt;Depth Image&lt;/font&gt;&lt;div&gt;&lt;font style=&quot;font-size: 14px;&quot;&gt;640x360x1&lt;/font&gt;&lt;/div&gt;" style="rounded=1;whiteSpace=wrap;html=1;" vertex="1" parent="1">
          <mxGeometry x="60" y="270" width="120" height="60" as="geometry" />
        </mxCell>
        <mxCell id="kaOW9bH6SVgOuemZYMXy-4" value="&lt;font style=&quot;font-size: 14px;&quot;&gt;Filter Background&lt;/font&gt;&lt;div&gt;&lt;font size=&quot;3&quot;&gt;Convert to Point Cloud&lt;/font&gt;&lt;/div&gt;" style="rounded=0;whiteSpace=wrap;html=1;rotation=-90;" vertex="1" parent="1">
          <mxGeometry x="140" y="270" width="180" height="60" as="geometry" />
        </mxCell>
        <mxCell id="kaOW9bH6SVgOuemZYMXy-5" value="&lt;font style=&quot;font-size: 14px;&quot;&gt;Semantic Point Cloud&lt;/font&gt;&lt;div&gt;&lt;font size=&quot;3&quot;&gt;230.400x3&lt;/font&gt;&lt;/div&gt;" style="rounded=1;whiteSpace=wrap;html=1;" vertex="1" parent="1">
          <mxGeometry x="300" y="350" width="120" height="60" as="geometry" />
        </mxCell>
        <mxCell id="kaOW9bH6SVgOuemZYMXy-6" value="&lt;font style=&quot;font-size: 14px;&quot;&gt;Point Cloud&lt;/font&gt;&lt;div&gt;&lt;font size=&quot;3&quot;&gt;N*4&lt;/font&gt;&lt;/div&gt;" style="rounded=1;whiteSpace=wrap;html=1;" vertex="1" parent="1">
          <mxGeometry x="500" y="350" width="120" height="60" as="geometry" />
        </mxCell>
        <mxCell id="kaOW9bH6SVgOuemZYMXy-7" value="&lt;span style=&quot;font-size: 14px;&quot;&gt;FPS&lt;/span&gt;" style="rounded=0;whiteSpace=wrap;html=1;rotation=-90;" vertex="1" parent="1">
          <mxGeometry x="430" y="360" width="60" height="40" as="geometry" />
        </mxCell>
        <mxCell id="kaOW9bH6SVgOuemZYMXy-8" value="&lt;font style=&quot;font-size: 14px;&quot;&gt;Semantic Mask&lt;/font&gt;&lt;div&gt;&lt;font style=&quot;font-size: 14px;&quot;&gt;640x360x1&lt;/font&gt;&lt;/div&gt;" style="rounded=1;whiteSpace=wrap;html=1;" vertex="1" parent="1">
          <mxGeometry x="60" y="430" width="120" height="60" as="geometry" />
        </mxCell>
        <mxCell id="kaOW9bH6SVgOuemZYMXy-9" value="&lt;font style=&quot;font-size: 14px;&quot;&gt;PCN&lt;/font&gt;&lt;div&gt;&lt;font size=&quot;3&quot;&gt;Encoder&lt;/font&gt;&lt;/div&gt;" style="shape=trapezoid;perimeter=trapezoidPerimeter;whiteSpace=wrap;html=1;fixedSize=1;rotation=90;" vertex="1" parent="1">
          <mxGeometry x="620" y="340" width="120" height="80" as="geometry" />
        </mxCell>
        <mxCell id="kaOW9bH6SVgOuemZYMXy-10" value="&lt;font style=&quot;font-size: 14px;&quot;&gt;PCN&lt;/font&gt;&lt;div&gt;&lt;font size=&quot;3&quot;&gt;Decoder&lt;/font&gt;&lt;/div&gt;" style="shape=trapezoid;perimeter=trapezoidPerimeter;whiteSpace=wrap;html=1;fixedSize=1;rotation=-90;" vertex="1" parent="1">
          <mxGeometry x="720" y="340" width="120" height="80" as="geometry" />
        </mxCell>
        <mxCell id="kaOW9bH6SVgOuemZYMXy-12" value="&lt;font style=&quot;font-size: 14px;&quot;&gt;Coarse Point Cloud&lt;/font&gt;&lt;div&gt;&lt;font size=&quot;3&quot; style=&quot;&quot;&gt;Nx3&lt;/font&gt;&lt;/div&gt;" style="rounded=1;whiteSpace=wrap;html=1;" vertex="1" parent="1">
          <mxGeometry x="690" y="480" width="120" height="60" as="geometry" />
        </mxCell>
        <mxCell id="kaOW9bH6SVgOuemZYMXy-13" value="&lt;font style=&quot;font-size: 14px;&quot;&gt;Detailed Point Cloud&lt;/font&gt;&lt;div&gt;&lt;font size=&quot;3&quot; style=&quot;&quot;&gt;Mx3&lt;/font&gt;&lt;/div&gt;" style="rounded=1;whiteSpace=wrap;html=1;" vertex="1" parent="1">
          <mxGeometry x="860" y="350" width="120" height="60" as="geometry" />
        </mxCell>
        <mxCell id="kaOW9bH6SVgOuemZYMXy-14" value="" style="endArrow=none;html=1;rounded=0;exitX=1;exitY=0.5;exitDx=0;exitDy=0;entryX=0.5;entryY=0;entryDx=0;entryDy=0;" edge="1" parent="1" source="kaOW9bH6SVgOuemZYMXy-1" target="kaOW9bH6SVgOuemZYMXy-4">
          <mxGeometry width="50" height="50" relative="1" as="geometry">
            <mxPoint x="530" y="500" as="sourcePoint" />
            <mxPoint x="580" y="450" as="targetPoint" />
          </mxGeometry>
        </mxCell>
        <mxCell id="kaOW9bH6SVgOuemZYMXy-15" value="" style="endArrow=none;html=1;rounded=0;exitX=1;exitY=0.5;exitDx=0;exitDy=0;" edge="1" parent="1" source="kaOW9bH6SVgOuemZYMXy-8">
          <mxGeometry width="50" height="50" relative="1" as="geometry">
            <mxPoint x="210" y="520" as="sourcePoint" />
            <mxPoint x="280" y="460" as="targetPoint" />
          </mxGeometry>
        </mxCell>
        <mxCell id="kaOW9bH6SVgOuemZYMXy-16" value="" style="endArrow=none;html=1;rounded=0;" edge="1" parent="1">
          <mxGeometry width="50" height="50" relative="1" as="geometry">
            <mxPoint x="280" y="460" as="sourcePoint" />
            <mxPoint x="280" y="380" as="targetPoint" />
          </mxGeometry>
        </mxCell>
        <mxCell id="kaOW9bH6SVgOuemZYMXy-17" value="" style="endArrow=none;html=1;rounded=0;exitX=0.5;exitY=1;exitDx=0;exitDy=0;entryX=0;entryY=0.5;entryDx=0;entryDy=0;" edge="1" parent="1" source="kaOW9bH6SVgOuemZYMXy-4" target="kaOW9bH6SVgOuemZYMXy-5">
          <mxGeometry width="50" height="50" relative="1" as="geometry">
            <mxPoint x="290" y="290" as="sourcePoint" />
            <mxPoint x="340" y="240" as="targetPoint" />
            <Array as="points">
              <mxPoint x="280" y="300" />
              <mxPoint x="280" y="380" />
            </Array>
          </mxGeometry>
        </mxCell>
        <mxCell id="kaOW9bH6SVgOuemZYMXy-18" value="" style="endArrow=none;html=1;rounded=0;exitX=1;exitY=0.5;exitDx=0;exitDy=0;entryX=0.5;entryY=0;entryDx=0;entryDy=0;" edge="1" parent="1" source="kaOW9bH6SVgOuemZYMXy-5" target="kaOW9bH6SVgOuemZYMXy-7">
          <mxGeometry width="50" height="50" relative="1" as="geometry">
            <mxPoint x="530" y="500" as="sourcePoint" />
            <mxPoint x="580" y="450" as="targetPoint" />
          </mxGeometry>
        </mxCell>
        <mxCell id="kaOW9bH6SVgOuemZYMXy-19" value="" style="endArrow=none;html=1;rounded=0;exitX=0.5;exitY=1;exitDx=0;exitDy=0;entryX=0;entryY=0.5;entryDx=0;entryDy=0;" edge="1" parent="1" source="kaOW9bH6SVgOuemZYMXy-7" target="kaOW9bH6SVgOuemZYMXy-6">
          <mxGeometry width="50" height="50" relative="1" as="geometry">
            <mxPoint x="530" y="500" as="sourcePoint" />
            <mxPoint x="580" y="450" as="targetPoint" />
          </mxGeometry>
        </mxCell>
        <mxCell id="kaOW9bH6SVgOuemZYMXy-20" value="" style="endArrow=none;html=1;rounded=0;exitX=1;exitY=0.5;exitDx=0;exitDy=0;entryX=0.5;entryY=1;entryDx=0;entryDy=0;" edge="1" parent="1" source="kaOW9bH6SVgOuemZYMXy-6" target="kaOW9bH6SVgOuemZYMXy-9">
          <mxGeometry width="50" height="50" relative="1" as="geometry">
            <mxPoint x="530" y="500" as="sourcePoint" />
            <mxPoint x="580" y="450" as="targetPoint" />
          </mxGeometry>
        </mxCell>
        <mxCell id="kaOW9bH6SVgOuemZYMXy-21" value="" style="endArrow=none;html=1;rounded=0;exitX=0.5;exitY=0;exitDx=0;exitDy=0;" edge="1" parent="1" source="kaOW9bH6SVgOuemZYMXy-9" target="kaOW9bH6SVgOuemZYMXy-10">
          <mxGeometry width="50" height="50" relative="1" as="geometry">
            <mxPoint x="530" y="500" as="sourcePoint" />
            <mxPoint x="580" y="450" as="targetPoint" />
          </mxGeometry>
        </mxCell>
        <mxCell id="kaOW9bH6SVgOuemZYMXy-22" value="" style="endArrow=none;html=1;rounded=0;entryX=0.5;entryY=1;entryDx=0;entryDy=0;exitX=0;exitY=0.5;exitDx=0;exitDy=0;" edge="1" parent="1" source="kaOW9bH6SVgOuemZYMXy-13" target="kaOW9bH6SVgOuemZYMXy-10">
          <mxGeometry width="50" height="50" relative="1" as="geometry">
            <mxPoint x="530" y="500" as="sourcePoint" />
            <mxPoint x="580" y="450" as="targetPoint" />
          </mxGeometry>
        </mxCell>
        <mxCell id="kaOW9bH6SVgOuemZYMXy-23" value="" style="endArrow=none;html=1;rounded=0;exitX=0.5;exitY=0;exitDx=0;exitDy=0;entryX=0;entryY=0;entryDx=0;entryDy=0;" edge="1" parent="1" source="kaOW9bH6SVgOuemZYMXy-12" target="kaOW9bH6SVgOuemZYMXy-10">
          <mxGeometry width="50" height="50" relative="1" as="geometry">
            <mxPoint x="530" y="500" as="sourcePoint" />
            <mxPoint x="580" y="450" as="targetPoint" />
          </mxGeometry>
        </mxCell>
      </root>
    </mxGraphModel>
  </diagram>
</mxfile>
